<?xml version="1.0" encoding="utf-8"?>
<!-- Generator: Adobe Illustrator 16.0.0, SVG Export Plug-In . SVG Version: 6.00 Build 0)  -->
<!DOCTYPE svg PUBLIC "-//W3C//DTD SVG 1.1//EN" "http://www.w3.org/Graphics/SVG/1.1/DTD/svg11.dtd">
<svg version="1.1" id="Layer_1" xmlns="http://www.w3.org/2000/svg" xmlns:xlink="http://www.w3.org/1999/xlink" x="0px" y="0px"
	 width="78.668px" height="78.668px" viewBox="0 0 78.668 78.668" style="enable-background:new 0 0 78.668 78.668;"
	 xml:space="preserve">
<path style="fill:#2BA9E0;" d="M38.778,0.113c-21.724,0-39.334,17.61-39.334,39.333c0,21.725,17.61,39.334,39.334,39.334
	s39.334-17.609,39.334-39.334C78.112,17.724,60.502,0.113,38.778,0.113z M60.981,28.06c0.021,0.491,0.033,0.985,0.033,1.482
	c0,15.139-11.523,32.595-32.594,32.595c-6.47,0-12.491-1.896-17.561-5.147c0.896,0.106,1.808,0.16,2.733,0.16
	c5.367,0,10.307-1.831,14.228-4.904c-5.013-0.092-9.244-3.404-10.702-7.955c0.7,0.134,1.417,0.205,2.155,0.205
	c1.045,0,2.057-0.14,3.018-0.401c-5.241-1.053-9.189-5.683-9.189-11.233c0-0.048,0-0.096,0.001-0.144
	c1.545,0.857,3.311,1.373,5.189,1.433c-3.074-2.055-5.096-5.561-5.096-9.535c0-2.1,0.565-4.067,1.551-5.759
	c5.65,6.931,14.091,11.491,23.612,11.969c-0.195-0.838-0.297-1.713-0.297-2.61c0-6.326,5.13-11.455,11.456-11.455
	c3.295,0,6.271,1.391,8.361,3.617c2.609-0.514,5.062-1.467,7.275-2.78c-0.855,2.676-2.672,4.92-5.037,6.338
	c2.315-0.276,4.523-0.892,6.577-1.803c0,0,0.001,0,0.001-0.001h0.002c-0.001,0-0.002,0-0.003,0.001
	C65.16,24.428,63.22,26.444,60.981,28.06z"/>
</svg>
